ISO-10303-21;
HEADER;
/* Generated by software containing ST-Developer
 * from STEP Tools, Inc. (www.steptools.com) 
 */

FILE_DESCRIPTION(
/* description */ (''),
/* implementation_level */ '2;1');

FILE_NAME(
/* name */ 'Tendon LT.step',
/* time_stamp */ '2026-02-17T16:30:18-03:00',
/* author */ (''),
/* organization */ (''),
/* preprocessor_version */ 'ST-DEVELOPER v20.1',
/* originating_system */ 'Autodesk Translation Framework v14.21.0.0',
/* authorisation */ '');

FILE_SCHEMA (('AUTOMOTIVE_DESIGN { 1 0 10303 214 3 1 1 }'));
ENDSEC;

DATA;
#10=MECHANICAL_DESIGN_GEOMETRIC_PRESENTATION_REPRESENTATION('',(#13),#461);
#11=SHAPE_REPRESENTATION_RELATIONSHIP('SRR','None',#468,#12);
#12=ADVANCED_BREP_SHAPE_REPRESENTATION('',(#14),#460);
#13=STYLED_ITEM('',(#477),#14);
#14=MANIFOLD_SOLID_BREP('Tendon LT',#265);
#15=FACE_BOUND('',#62,.T.);
#16=FACE_BOUND('',#63,.T.);
#17=FACE_BOUND('',#70,.T.);
#18=FACE_BOUND('',#71,.T.);
#19=CYLINDRICAL_SURFACE('',#287,3.50000000000001);
#20=CYLINDRICAL_SURFACE('',#300,3.5);
#21=CYLINDRICAL_SURFACE('',#304,1.4);
#22=CYLINDRICAL_SURFACE('',#305,1.45);
#23=CIRCLE('',#281,3.50000000000001);
#24=CIRCLE('',#282,2.5);
#25=CIRCLE('',#285,3.5);
#26=CIRCLE('',#286,2.5);
#27=CIRCLE('',#288,3.50000000000001);
#28=CIRCLE('',#291,1.4);
#29=CIRCLE('',#292,1.45);
#30=CIRCLE('',#295,2.5);
#31=CIRCLE('',#296,3.5);
#32=CIRCLE('',#299,2.5);
#33=CIRCLE('',#302,1.4);
#34=CIRCLE('',#303,1.45);
#35=CONICAL_SURFACE('',#280,3.,0.785398163397449);
#36=CONICAL_SURFACE('',#284,3.,0.785398163397449);
#37=CONICAL_SURFACE('',#294,3.,0.785398163397448);
#38=CONICAL_SURFACE('',#298,3.,0.785398163397448);
#39=FACE_OUTER_BOUND('',#55,.T.);
#40=FACE_OUTER_BOUND('',#56,.T.);
#41=FACE_OUTER_BOUND('',#57,.T.);
#42=FACE_OUTER_BOUND('',#58,.T.);
#43=FACE_OUTER_BOUND('',#59,.T.);
#44=FACE_OUTER_BOUND('',#60,.T.);
#45=FACE_OUTER_BOUND('',#61,.T.);
#46=FACE_OUTER_BOUND('',#64,.T.);
#47=FACE_OUTER_BOUND('',#65,.T.);
#48=FACE_OUTER_BOUND('',#66,.T.);
#49=FACE_OUTER_BOUND('',#67,.T.);
#50=FACE_OUTER_BOUND('',#68,.T.);
#51=FACE_OUTER_BOUND('',#69,.T.);
#52=FACE_OUTER_BOUND('',#72,.T.);
#53=FACE_OUTER_BOUND('',#73,.T.);
#54=FACE_OUTER_BOUND('',#74,.T.);
#55=EDGE_LOOP('',(#173,#174,#175,#176));
#56=EDGE_LOOP('',(#177,#178,#179,#180));
#57=EDGE_LOOP('',(#181,#182,#183,#184));
#58=EDGE_LOOP('',(#185,#186,#187,#188));
#59=EDGE_LOOP('',(#189,#190,#191,#192));
#60=EDGE_LOOP('',(#193,#194,#195,#196));
#61=EDGE_LOOP('',(#197,#198,#199,#200));
#62=EDGE_LOOP('',(#201));
#63=EDGE_LOOP('',(#202));
#64=EDGE_LOOP('',(#203,#204,#205,#206));
#65=EDGE_LOOP('',(#207,#208,#209,#210));
#66=EDGE_LOOP('',(#211,#212,#213,#214));
#67=EDGE_LOOP('',(#215,#216,#217,#218));
#68=EDGE_LOOP('',(#219,#220,#221,#222));
#69=EDGE_LOOP('',(#223,#224,#225,#226));
#70=EDGE_LOOP('',(#227));
#71=EDGE_LOOP('',(#228));
#72=EDGE_LOOP('',(#229,#230,#231,#232));
#73=EDGE_LOOP('',(#233,#234,#235,#236));
#74=EDGE_LOOP('',(#237,#238,#239,#240));
#75=LINE('',#391,#97);
#76=LINE('',#393,#98);
#77=LINE('',#395,#99);
#78=LINE('',#396,#100);
#79=LINE('',#401,#101);
#80=LINE('',#406,#102);
#81=LINE('',#407,#103);
#82=LINE('',#408,#104);
#83=LINE('',#414,#105);
#84=LINE('',#417,#106);
#85=LINE('',#420,#107);
#86=LINE('',#421,#108);
#87=LINE('',#429,#109);
#88=LINE('',#431,#110);
#89=LINE('',#432,#111);
#90=LINE('',#436,#112);
#91=LINE('',#441,#113);
#92=LINE('',#442,#114);
#93=LINE('',#443,#115);
#94=LINE('',#447,#116);
#95=LINE('',#454,#117);
#96=LINE('',#456,#118);
#97=VECTOR('',#311,10.);
#98=VECTOR('',#312,10.);
#99=VECTOR('',#313,10.);
#100=VECTOR('',#314,10.);
#101=VECTOR('',#319,10.);
#102=VECTOR('',#324,10.);
#103=VECTOR('',#325,10.);
#104=VECTOR('',#326,10.);
#105=VECTOR('',#335,10.);
#106=VECTOR('',#338,10.);
#107=VECTOR('',#341,10.);
#108=VECTOR('',#342,10.);
#109=VECTOR('',#351,10.);
#110=VECTOR('',#352,10.);
#111=VECTOR('',#353,10.);
#112=VECTOR('',#356,10.);
#113=VECTOR('',#363,10.);
#114=VECTOR('',#364,10.);
#115=VECTOR('',#365,10.);
#116=VECTOR('',#372,10.);
#117=VECTOR('',#381,1.4);
#118=VECTOR('',#384,1.45);
#119=VERTEX_POINT('',#389);
#120=VERTEX_POINT('',#390);
#121=VERTEX_POINT('',#392);
#122=VERTEX_POINT('',#394);
#123=VERTEX_POINT('',#398);
#124=VERTEX_POINT('',#400);
#125=VERTEX_POINT('',#404);
#126=VERTEX_POINT('',#405);
#127=VERTEX_POINT('',#413);
#128=VERTEX_POINT('',#415);
#129=VERTEX_POINT('',#419);
#130=VERTEX_POINT('',#423);
#131=VERTEX_POINT('',#425);
#132=VERTEX_POINT('',#428);
#133=VERTEX_POINT('',#430);
#134=VERTEX_POINT('',#434);
#135=VERTEX_POINT('',#435);
#136=VERTEX_POINT('',#440);
#137=VERTEX_POINT('',#449);
#138=VERTEX_POINT('',#451);
#139=EDGE_CURVE('',#119,#120,#75,.T.);
#140=EDGE_CURVE('',#120,#121,#76,.T.);
#141=EDGE_CURVE('',#121,#122,#77,.T.);
#142=EDGE_CURVE('',#122,#119,#78,.T.);
#143=EDGE_CURVE('',#119,#123,#23,.T.);
#144=EDGE_CURVE('',#123,#124,#79,.T.);
#145=EDGE_CURVE('',#124,#120,#24,.T.);
#146=EDGE_CURVE('',#125,#126,#80,.T.);
#147=EDGE_CURVE('',#126,#124,#81,.T.);
#148=EDGE_CURVE('',#123,#125,#82,.T.);
#149=EDGE_CURVE('',#125,#122,#25,.T.);
#150=EDGE_CURVE('',#121,#126,#26,.T.);
#151=EDGE_CURVE('',#119,#127,#83,.T.);
#152=EDGE_CURVE('',#128,#127,#27,.T.);
#153=EDGE_CURVE('',#123,#128,#84,.T.);
#154=EDGE_CURVE('',#122,#129,#85,.T.);
#155=EDGE_CURVE('',#127,#129,#86,.T.);
#156=EDGE_CURVE('',#130,#130,#28,.T.);
#157=EDGE_CURVE('',#131,#131,#29,.T.);
#158=EDGE_CURVE('',#129,#132,#87,.T.);
#159=EDGE_CURVE('',#132,#133,#88,.T.);
#160=EDGE_CURVE('',#133,#127,#89,.T.);
#161=EDGE_CURVE('',#134,#135,#90,.T.);
#162=EDGE_CURVE('',#135,#132,#30,.T.);
#163=EDGE_CURVE('',#129,#134,#31,.T.);
#164=EDGE_CURVE('',#128,#136,#91,.T.);
#165=EDGE_CURVE('',#136,#135,#92,.T.);
#166=EDGE_CURVE('',#134,#128,#93,.T.);
#167=EDGE_CURVE('',#133,#136,#32,.T.);
#168=EDGE_CURVE('',#125,#134,#94,.T.);
#169=EDGE_CURVE('',#137,#137,#33,.T.);
#170=EDGE_CURVE('',#138,#138,#34,.T.);
#171=EDGE_CURVE('',#137,#130,#95,.T.);
#172=EDGE_CURVE('',#138,#131,#96,.T.);
#173=ORIENTED_EDGE('',*,*,#139,.T.);
#174=ORIENTED_EDGE('',*,*,#140,.T.);
#175=ORIENTED_EDGE('',*,*,#141,.T.);
#176=ORIENTED_EDGE('',*,*,#142,.T.);
#177=ORIENTED_EDGE('',*,*,#139,.F.);
#178=ORIENTED_EDGE('',*,*,#143,.T.);
#179=ORIENTED_EDGE('',*,*,#144,.T.);
#180=ORIENTED_EDGE('',*,*,#145,.T.);
#181=ORIENTED_EDGE('',*,*,#146,.T.);
#182=ORIENTED_EDGE('',*,*,#147,.T.);
#183=ORIENTED_EDGE('',*,*,#144,.F.);
#184=ORIENTED_EDGE('',*,*,#148,.T.);
#185=ORIENTED_EDGE('',*,*,#146,.F.);
#186=ORIENTED_EDGE('',*,*,#149,.T.);
#187=ORIENTED_EDGE('',*,*,#141,.F.);
#188=ORIENTED_EDGE('',*,*,#150,.T.);
#189=ORIENTED_EDGE('',*,*,#143,.F.);
#190=ORIENTED_EDGE('',*,*,#151,.T.);
#191=ORIENTED_EDGE('',*,*,#152,.F.);
#192=ORIENTED_EDGE('',*,*,#153,.F.);
#193=ORIENTED_EDGE('',*,*,#142,.F.);
#194=ORIENTED_EDGE('',*,*,#154,.T.);
#195=ORIENTED_EDGE('',*,*,#155,.F.);
#196=ORIENTED_EDGE('',*,*,#151,.F.);
#197=ORIENTED_EDGE('',*,*,#140,.F.);
#198=ORIENTED_EDGE('',*,*,#145,.F.);
#199=ORIENTED_EDGE('',*,*,#147,.F.);
#200=ORIENTED_EDGE('',*,*,#150,.F.);
#201=ORIENTED_EDGE('',*,*,#156,.F.);
#202=ORIENTED_EDGE('',*,*,#157,.F.);
#203=ORIENTED_EDGE('',*,*,#158,.T.);
#204=ORIENTED_EDGE('',*,*,#159,.T.);
#205=ORIENTED_EDGE('',*,*,#160,.T.);
#206=ORIENTED_EDGE('',*,*,#155,.T.);
#207=ORIENTED_EDGE('',*,*,#161,.T.);
#208=ORIENTED_EDGE('',*,*,#162,.T.);
#209=ORIENTED_EDGE('',*,*,#158,.F.);
#210=ORIENTED_EDGE('',*,*,#163,.T.);
#211=ORIENTED_EDGE('',*,*,#164,.T.);
#212=ORIENTED_EDGE('',*,*,#165,.T.);
#213=ORIENTED_EDGE('',*,*,#161,.F.);
#214=ORIENTED_EDGE('',*,*,#166,.T.);
#215=ORIENTED_EDGE('',*,*,#160,.F.);
#216=ORIENTED_EDGE('',*,*,#167,.T.);
#217=ORIENTED_EDGE('',*,*,#164,.F.);
#218=ORIENTED_EDGE('',*,*,#152,.T.);
#219=ORIENTED_EDGE('',*,*,#149,.F.);
#220=ORIENTED_EDGE('',*,*,#168,.T.);
#221=ORIENTED_EDGE('',*,*,#163,.F.);
#222=ORIENTED_EDGE('',*,*,#154,.F.);
#223=ORIENTED_EDGE('',*,*,#159,.F.);
#224=ORIENTED_EDGE('',*,*,#162,.F.);
#225=ORIENTED_EDGE('',*,*,#165,.F.);
#226=ORIENTED_EDGE('',*,*,#167,.F.);
#227=ORIENTED_EDGE('',*,*,#169,.T.);
#228=ORIENTED_EDGE('',*,*,#170,.T.);
#229=ORIENTED_EDGE('',*,*,#169,.F.);
#230=ORIENTED_EDGE('',*,*,#171,.T.);
#231=ORIENTED_EDGE('',*,*,#156,.T.);
#232=ORIENTED_EDGE('',*,*,#171,.F.);
#233=ORIENTED_EDGE('',*,*,#170,.F.);
#234=ORIENTED_EDGE('',*,*,#172,.T.);
#235=ORIENTED_EDGE('',*,*,#157,.T.);
#236=ORIENTED_EDGE('',*,*,#172,.F.);
#237=ORIENTED_EDGE('',*,*,#148,.F.);
#238=ORIENTED_EDGE('',*,*,#153,.T.);
#239=ORIENTED_EDGE('',*,*,#166,.F.);
#240=ORIENTED_EDGE('',*,*,#168,.F.);
#241=PLANE('',#279);
#242=PLANE('',#283);
#243=PLANE('',#289);
#244=PLANE('',#290);
#245=PLANE('',#293);
#246=PLANE('',#297);
#247=PLANE('',#301);
#248=PLANE('',#306);
#249=ADVANCED_FACE('',(#39),#241,.T.);
#250=ADVANCED_FACE('',(#40),#35,.T.);
#251=ADVANCED_FACE('',(#41),#242,.T.);
#252=ADVANCED_FACE('',(#42),#36,.T.);
#253=ADVANCED_FACE('',(#43),#19,.T.);
#254=ADVANCED_FACE('',(#44),#243,.T.);
#255=ADVANCED_FACE('',(#45,#15,#16),#244,.F.);
#256=ADVANCED_FACE('',(#46),#245,.T.);
#257=ADVANCED_FACE('',(#47),#37,.T.);
#258=ADVANCED_FACE('',(#48),#246,.T.);
#259=ADVANCED_FACE('',(#49),#38,.T.);
#260=ADVANCED_FACE('',(#50),#20,.T.);
#261=ADVANCED_FACE('',(#51,#17,#18),#247,.T.);
#262=ADVANCED_FACE('',(#52),#21,.F.);
#263=ADVANCED_FACE('',(#53),#22,.F.);
#264=ADVANCED_FACE('',(#54),#248,.T.);
#265=CLOSED_SHELL('',(#249,#250,#251,#252,#253,#254,#255,#256,#257,#258,
#259,#260,#261,#262,#263,#264));
#266=DERIVED_UNIT_ELEMENT(#268,1.);
#267=DERIVED_UNIT_ELEMENT(#463,-3.);
#268=(
MASS_UNIT()
NAMED_UNIT(*)
SI_UNIT(.KILO.,.GRAM.)
);
#269=DERIVED_UNIT((#266,#267));
#270=MEASURE_REPRESENTATION_ITEM('density measure',
POSITIVE_RATIO_MEASURE(7850.),#269);
#271=PROPERTY_DEFINITION_REPRESENTATION(#276,#273);
#272=PROPERTY_DEFINITION_REPRESENTATION(#277,#274);
#273=REPRESENTATION('material name',(#275),#460);
#274=REPRESENTATION('density',(#270),#460);
#275=DESCRIPTIVE_REPRESENTATION_ITEM('Steel','Steel');
#276=PROPERTY_DEFINITION('material property','material name',#470);
#277=PROPERTY_DEFINITION('material property','density of part',#470);
#278=AXIS2_PLACEMENT_3D('',#387,#307,#308);
#279=AXIS2_PLACEMENT_3D('',#388,#309,#310);
#280=AXIS2_PLACEMENT_3D('',#397,#315,#316);
#281=AXIS2_PLACEMENT_3D('',#399,#317,#318);
#282=AXIS2_PLACEMENT_3D('',#402,#320,#321);
#283=AXIS2_PLACEMENT_3D('',#403,#322,#323);
#284=AXIS2_PLACEMENT_3D('',#409,#327,#328);
#285=AXIS2_PLACEMENT_3D('',#410,#329,#330);
#286=AXIS2_PLACEMENT_3D('',#411,#331,#332);
#287=AXIS2_PLACEMENT_3D('',#412,#333,#334);
#288=AXIS2_PLACEMENT_3D('',#416,#336,#337);
#289=AXIS2_PLACEMENT_3D('',#418,#339,#340);
#290=AXIS2_PLACEMENT_3D('',#422,#343,#344);
#291=AXIS2_PLACEMENT_3D('',#424,#345,#346);
#292=AXIS2_PLACEMENT_3D('',#426,#347,#348);
#293=AXIS2_PLACEMENT_3D('',#427,#349,#350);
#294=AXIS2_PLACEMENT_3D('',#433,#354,#355);
#295=AXIS2_PLACEMENT_3D('',#437,#357,#358);
#296=AXIS2_PLACEMENT_3D('',#438,#359,#360);
#297=AXIS2_PLACEMENT_3D('',#439,#361,#362);
#298=AXIS2_PLACEMENT_3D('',#444,#366,#367);
#299=AXIS2_PLACEMENT_3D('',#445,#368,#369);
#300=AXIS2_PLACEMENT_3D('',#446,#370,#371);
#301=AXIS2_PLACEMENT_3D('',#448,#373,#374);
#302=AXIS2_PLACEMENT_3D('',#450,#375,#376);
#303=AXIS2_PLACEMENT_3D('',#452,#377,#378);
#304=AXIS2_PLACEMENT_3D('',#453,#379,#380);
#305=AXIS2_PLACEMENT_3D('',#455,#382,#383);
#306=AXIS2_PLACEMENT_3D('',#457,#385,#386);
#307=DIRECTION('axis',(0.,0.,1.));
#308=DIRECTION('refdir',(1.,0.,0.));
#309=DIRECTION('center_axis',(-0.707106781186546,0.,-0.707106781186549));
#310=DIRECTION('ref_axis',(-0.707106781186549,0.,0.707106781186546));
#311=DIRECTION('',(-0.707106781186549,0.,0.707106781186546));
#312=DIRECTION('',(0.,1.,0.));
#313=DIRECTION('',(0.707106781186552,0.,-0.707106781186543));
#314=DIRECTION('',(0.,-1.,0.));
#315=DIRECTION('center_axis',(1.,0.,0.));
#316=DIRECTION('ref_axis',(0.,0.,-1.));
#317=DIRECTION('center_axis',(-1.,0.,0.));
#318=DIRECTION('ref_axis',(0.,0.,-1.));
#319=DIRECTION('',(-0.707106781186549,0.,-0.707106781186546));
#320=DIRECTION('center_axis',(1.,0.,0.));
#321=DIRECTION('ref_axis',(0.,0.,-1.));
#322=DIRECTION('center_axis',(-0.707106781186546,0.,0.707106781186549));
#323=DIRECTION('ref_axis',(0.707106781186549,0.,0.707106781186546));
#324=DIRECTION('',(-0.707106781186549,0.,-0.707106781186546));
#325=DIRECTION('',(0.,-1.,0.));
#326=DIRECTION('',(0.,1.,0.));
#327=DIRECTION('center_axis',(1.,0.,0.));
#328=DIRECTION('ref_axis',(0.,0.,-1.));
#329=DIRECTION('center_axis',(-1.,0.,0.));
#330=DIRECTION('ref_axis',(0.,0.,-1.));
#331=DIRECTION('center_axis',(1.,0.,0.));
#332=DIRECTION('ref_axis',(0.,0.,-1.));
#333=DIRECTION('center_axis',(1.,0.,0.));
#334=DIRECTION('ref_axis',(0.,0.,-1.));
#335=DIRECTION('',(1.,0.,0.));
#336=DIRECTION('center_axis',(1.,0.,0.));
#337=DIRECTION('ref_axis',(0.,0.,-1.));
#338=DIRECTION('',(1.,0.,0.));
#339=DIRECTION('center_axis',(0.,0.,-1.));
#340=DIRECTION('ref_axis',(0.,1.,0.));
#341=DIRECTION('',(1.,0.,0.));
#342=DIRECTION('',(0.,1.,0.));
#343=DIRECTION('center_axis',(1.,0.,0.));
#344=DIRECTION('ref_axis',(0.,0.,-1.));
#345=DIRECTION('center_axis',(-1.,0.,0.));
#346=DIRECTION('ref_axis',(0.,0.,-1.));
#347=DIRECTION('center_axis',(-1.,0.,0.));
#348=DIRECTION('ref_axis',(0.,0.,-1.));
#349=DIRECTION('center_axis',(0.707106781186546,0.,-0.707106781186549));
#350=DIRECTION('ref_axis',(-0.707106781186549,0.,-0.707106781186546));
#351=DIRECTION('',(0.707106781186552,0.,0.707106781186543));
#352=DIRECTION('',(0.,-1.,0.));
#353=DIRECTION('',(-0.707106781186549,0.,-0.707106781186546));
#354=DIRECTION('center_axis',(-1.,0.,0.));
#355=DIRECTION('ref_axis',(0.,0.,-1.));
#356=DIRECTION('',(0.707106781186549,0.,-0.707106781186546));
#357=DIRECTION('center_axis',(-1.,0.,0.));
#358=DIRECTION('ref_axis',(0.,0.,-1.));
#359=DIRECTION('center_axis',(1.,0.,0.));
#360=DIRECTION('ref_axis',(0.,0.,-1.));
#361=DIRECTION('center_axis',(0.707106781186546,0.,0.707106781186549));
#362=DIRECTION('ref_axis',(0.707106781186549,0.,-0.707106781186546));
#363=DIRECTION('',(0.707106781186549,0.,-0.707106781186546));
#364=DIRECTION('',(0.,1.,0.));
#365=DIRECTION('',(0.,-1.,0.));
#366=DIRECTION('center_axis',(-1.,0.,0.));
#367=DIRECTION('ref_axis',(0.,0.,-1.));
#368=DIRECTION('center_axis',(-1.,0.,0.));
#369=DIRECTION('ref_axis',(0.,0.,-1.));
#370=DIRECTION('center_axis',(1.,0.,0.));
#371=DIRECTION('ref_axis',(0.,0.,-1.));
#372=DIRECTION('',(1.,0.,0.));
#373=DIRECTION('center_axis',(1.,0.,0.));
#374=DIRECTION('ref_axis',(0.,0.,-1.));
#375=DIRECTION('center_axis',(-1.,0.,0.));
#376=DIRECTION('ref_axis',(0.,0.,-1.));
#377=DIRECTION('center_axis',(-1.,0.,0.));
#378=DIRECTION('ref_axis',(0.,0.,-1.));
#379=DIRECTION('center_axis',(1.,0.,0.));
#380=DIRECTION('ref_axis',(0.,0.,-1.));
#381=DIRECTION('',(-1.,0.,0.));
#382=DIRECTION('center_axis',(1.,0.,0.));
#383=DIRECTION('ref_axis',(0.,0.,-1.));
#384=DIRECTION('',(-1.,0.,0.));
#385=DIRECTION('center_axis',(0.,0.,1.));
#386=DIRECTION('ref_axis',(0.,-1.,0.));
#387=CARTESIAN_POINT('',(0.,0.,0.));
#388=CARTESIAN_POINT('Origin',(6.5,-10.75,-47.));
#389=CARTESIAN_POINT('',(7.,-24.,-47.5));
#390=CARTESIAN_POINT('',(6.,-24.,-46.5));
#391=CARTESIAN_POINT('',(7.,-24.,-47.5));
#392=CARTESIAN_POINT('',(6.,29.,-46.5));
#393=CARTESIAN_POINT('',(6.,-10.75,-46.5));
#394=CARTESIAN_POINT('',(7.,29.,-47.5));
#395=CARTESIAN_POINT('',(6.,29.,-46.5));
#396=CARTESIAN_POINT('',(7.,-10.75,-47.5));
#397=CARTESIAN_POINT('Origin',(6.5,-24.,-44.));
#398=CARTESIAN_POINT('',(7.,-24.,-40.5));
#399=CARTESIAN_POINT('Origin',(7.,-24.,-44.));
#400=CARTESIAN_POINT('',(6.,-24.,-41.5));
#401=CARTESIAN_POINT('',(7.,-24.,-40.5));
#402=CARTESIAN_POINT('Origin',(6.,-24.,-44.));
#403=CARTESIAN_POINT('Origin',(6.5,15.75,-41.));
#404=CARTESIAN_POINT('',(7.,29.,-40.5));
#405=CARTESIAN_POINT('',(6.,29.,-41.5));
#406=CARTESIAN_POINT('',(7.,29.,-40.5));
#407=CARTESIAN_POINT('',(6.,15.75,-41.5));
#408=CARTESIAN_POINT('',(7.,15.75,-40.5));
#409=CARTESIAN_POINT('Origin',(6.5,29.,-44.));
#410=CARTESIAN_POINT('Origin',(7.,29.,-44.));
#411=CARTESIAN_POINT('Origin',(6.,29.,-44.));
#412=CARTESIAN_POINT('Origin',(6.,-24.,-44.));
#413=CARTESIAN_POINT('',(28.5,-24.,-47.5));
#414=CARTESIAN_POINT('',(6.,-24.,-47.5));
#415=CARTESIAN_POINT('',(28.5,-24.,-40.5));
#416=CARTESIAN_POINT('Origin',(28.5,-24.,-44.));
#417=CARTESIAN_POINT('',(6.,-24.,-40.5));
#418=CARTESIAN_POINT('Origin',(6.,-24.,-47.5));
#419=CARTESIAN_POINT('',(28.5,29.,-47.5));
#420=CARTESIAN_POINT('',(6.,29.,-47.5));
#421=CARTESIAN_POINT('',(28.5,-10.75,-47.5));
#422=CARTESIAN_POINT('Origin',(6.,2.49999999999999,-44.));
#423=CARTESIAN_POINT('',(6.,29.,-42.6));
#424=CARTESIAN_POINT('Origin',(6.,29.,-44.));
#425=CARTESIAN_POINT('',(6.,-24.,-42.55));
#426=CARTESIAN_POINT('Origin',(6.,-24.,-44.));
#427=CARTESIAN_POINT('Origin',(29.,-10.75,-47.));
#428=CARTESIAN_POINT('',(29.5,29.,-46.5));
#429=CARTESIAN_POINT('',(28.5,29.,-47.5));
#430=CARTESIAN_POINT('',(29.5,-24.,-46.5));
#431=CARTESIAN_POINT('',(29.5,-10.75,-46.5));
#432=CARTESIAN_POINT('',(29.5,-24.,-46.5));
#433=CARTESIAN_POINT('Origin',(29.,29.,-44.));
#434=CARTESIAN_POINT('',(28.5,29.,-40.5));
#435=CARTESIAN_POINT('',(29.5,29.,-41.5));
#436=CARTESIAN_POINT('',(28.5,29.,-40.5));
#437=CARTESIAN_POINT('Origin',(29.5,29.,-44.));
#438=CARTESIAN_POINT('Origin',(28.5,29.,-44.));
#439=CARTESIAN_POINT('Origin',(29.,15.75,-41.));
#440=CARTESIAN_POINT('',(29.5,-24.,-41.5));
#441=CARTESIAN_POINT('',(28.5,-24.,-40.5));
#442=CARTESIAN_POINT('',(29.5,15.75,-41.5));
#443=CARTESIAN_POINT('',(28.5,15.75,-40.5));
#444=CARTESIAN_POINT('Origin',(29.,-24.,-44.));
#445=CARTESIAN_POINT('Origin',(29.5,-24.,-44.));
#446=CARTESIAN_POINT('Origin',(6.,29.,-44.));
#447=CARTESIAN_POINT('',(6.,29.,-40.5));
#448=CARTESIAN_POINT('Origin',(29.5,2.49999999999999,-44.));
#449=CARTESIAN_POINT('',(29.5,29.,-42.6));
#450=CARTESIAN_POINT('Origin',(29.5,29.,-44.));
#451=CARTESIAN_POINT('',(29.5,-24.,-42.55));
#452=CARTESIAN_POINT('Origin',(29.5,-24.,-44.));
#453=CARTESIAN_POINT('Origin',(6.,29.,-44.));
#454=CARTESIAN_POINT('',(6.,29.,-42.6));
#455=CARTESIAN_POINT('Origin',(6.,-24.,-44.));
#456=CARTESIAN_POINT('',(6.,-24.,-42.55));
#457=CARTESIAN_POINT('Origin',(6.,29.,-40.5));
#458=UNCERTAINTY_MEASURE_WITH_UNIT(LENGTH_MEASURE(0.01),#462,
'DISTANCE_ACCURACY_VALUE',
'Maximum model space distance between geometric entities at asserted c
onnectivities');
#459=UNCERTAINTY_MEASURE_WITH_UNIT(LENGTH_MEASURE(0.01),#462,
'DISTANCE_ACCURACY_VALUE',
'Maximum model space distance between geometric entities at asserted c
onnectivities');
#460=(
GEOMETRIC_REPRESENTATION_CONTEXT(3)
GLOBAL_UNCERTAINTY_ASSIGNED_CONTEXT((#458))
GLOBAL_UNIT_ASSIGNED_CONTEXT((#462,#464,#465))
REPRESENTATION_CONTEXT('','3D')
);
#461=(
GEOMETRIC_REPRESENTATION_CONTEXT(3)
GLOBAL_UNCERTAINTY_ASSIGNED_CONTEXT((#459))
GLOBAL_UNIT_ASSIGNED_CONTEXT((#462,#464,#465))
REPRESENTATION_CONTEXT('','3D')
);
#462=(
LENGTH_UNIT()
NAMED_UNIT(*)
SI_UNIT(.MILLI.,.METRE.)
);
#463=(
LENGTH_UNIT()
NAMED_UNIT(*)
SI_UNIT($,.METRE.)
);
#464=(
NAMED_UNIT(*)
PLANE_ANGLE_UNIT()
SI_UNIT($,.RADIAN.)
);
#465=(
NAMED_UNIT(*)
SI_UNIT($,.STERADIAN.)
SOLID_ANGLE_UNIT()
);
#466=SHAPE_DEFINITION_REPRESENTATION(#467,#468);
#467=PRODUCT_DEFINITION_SHAPE('',$,#470);
#468=SHAPE_REPRESENTATION('',(#278),#460);
#469=PRODUCT_DEFINITION_CONTEXT('part definition',#474,'design');
#470=PRODUCT_DEFINITION('Tendon LT','Tendon LT',#471,#469);
#471=PRODUCT_DEFINITION_FORMATION('',$,#476);
#472=PRODUCT_RELATED_PRODUCT_CATEGORY('Tendon LT','Tendon LT',(#476));
#473=APPLICATION_PROTOCOL_DEFINITION('international standard',
'automotive_design',2009,#474);
#474=APPLICATION_CONTEXT(
'Core Data for Automotive Mechanical Design Process');
#475=PRODUCT_CONTEXT('part definition',#474,'mechanical');
#476=PRODUCT('Tendon LT','Tendon LT',$,(#475));
#477=PRESENTATION_STYLE_ASSIGNMENT((#478));
#478=SURFACE_STYLE_USAGE(.BOTH.,#479);
#479=SURFACE_SIDE_STYLE('',(#480));
#480=SURFACE_STYLE_FILL_AREA(#481);
#481=FILL_AREA_STYLE('Steel - Satin',(#482));
#482=FILL_AREA_STYLE_COLOUR('Steel - Satin',#483);
#483=COLOUR_RGB('Steel - Satin',0.627450980392157,0.627450980392157,0.627450980392157);
ENDSEC;
END-ISO-10303-21;
